# xmcd
#
# Track frame offsets:
#	150
#	10262
#	23485
#	34845
#	46150
#	57870
#	68075
#	79732
#	92637
#	103455
#	114327
#	126870
#	146610
#	160412
#	172602
#
# Disc length: 2539
#
# Revision: 2
# Processed by: cddbd v1.5.1PL0 Copyright (c) Steve Scherf et al.
# Submitted via: dBpowerAMP V4.0
# Normalized: r0:TSWAP
#
DISCID=b909e90f
DTITLE=Various Artist - Classic Country Late 60's
DYEAR=1900
DGENRE=Country
TTITLE0=Eddy Arnold - The Last Word In Lonesome Is Me
TTITLE1=David Houston - Almost Persuaded
TTITLE2=Buck Owens - Cryin' Time
TTITLE3=Sonny James - Take Good Care Of Her
TTITLE4=Marty Robbins - Ribbon Of Darkness
TTITLE5=Jim Reeves - Is It Really Over
TTITLE6=Jack Greene - There Goes My Everything
TTITLE7=Conway Twitty - Next In Line
TTITLE8=Porter Wagoner and Dolly Parton - Just Someone I Used To Know
TTITLE9=Porter Wagoner - Green, Green Grass Of Home
TTITLE10=Jim Reeves - Blue Side Of Lonesome
TTITLE11=Elvis Presley, Ronnie Milsap and Jeannie Green - Suspicious Minds
TTITLE12=Charley Pride - All I Have To Offer You (Is Me)
TTITLE13=Glen Cambell - Galveston
TTITLE14=Bobby Goldsboro - Honey
EXTD=
EXTT0=
EXTT1=
EXTT2=
EXTT3=
EXTT4=
EXTT5=
EXTT6=
EXTT7=
EXTT8=
EXTT9=
EXTT10=
EXTT11=
EXTT12=
EXTT13=
EXTT14=
PLAYORDER=
